<?xml version="1.0" encoding="utf-8"?>
<!-- Generator: Adobe Illustrator 16.0.0, SVG Export Plug-In . SVG Version: 6.00 Build 0)  -->
<!DOCTYPE svg PUBLIC "-//W3C//DTD SVG 1.1//EN" "http://www.w3.org/Graphics/SVG/1.1/DTD/svg11.dtd">
<svg version="1.1" id="Layer_1" xmlns="http://www.w3.org/2000/svg" xmlns:xlink="http://www.w3.org/1999/xlink" x="0px" y="0px"
	 width="690.439px" height="125.596px" viewBox="0 0 690.439 125.596" enable-background="new 0 0 690.439 125.596"
	 xml:space="preserve">
<g>
	<defs>
		<rect id="SVGID_1_" width="690.439" height="125.596"/>
	</defs>
	<clipPath id="SVGID_2_">
		<use xlink:href="#SVGID_1_"  overflow="visible"/>
	</clipPath>
	<path clip-path="url(#SVGID_2_)" fill="#58595B" d="M270.845,79.24h5.55v-9.67h5.984c1.442,0,2.617,1.221,2.617,2.634v7.036
		c0,0,6.913,0.014,7.793,0.014c0,1.934,0.009,6.376,0.009,6.376h-7.802v16.309c0,4.913,1.004,6.201,4.69,6.201
		c0.794,0,1.305-0.06,2.385-0.425v6.429c-1.811,0.369-3.313,0.526-5.051,0.526c-4.33,0-7.287-1.101-8.961-3.266
		c-1.38-1.712-1.65-3.166-1.65-8.519V85.63h-5.564V79.24z"/>
	<path clip-path="url(#SVGID_2_)" fill="#58595B" d="M55.013,60.049h5.944c1.589,0,2.653,1.308,2.653,2.594v17.13
		c2.873-1.023,5.124-1.43,7.777-1.43c9.98,0,16.258,6.699,16.258,17.381c0,12.214-7.884,18.935-22.233,18.935
		c-3.324,0-5.912-0.287-10.399-1.089V60.049z M63.609,107.516c1.372,0.124,2.149,0.222,3.311,0.222
		c7.864,0,11.99-3.913,11.99-11.575c0-6.926-3.628-10.863-9.962-10.863c-1.817,0-3.19,0.181-5.339,1.015V107.516z"/>
	<path clip-path="url(#SVGID_2_)" fill="#58595B" d="M116.739,60.049h5.926c1.554,0,2.663,1.195,2.663,2.64v50.535
		c-5.271,1.086-9.385,1.511-13.431,1.511c-12.777,0-19.502-6.082-19.502-17.648c0-11.378,7.298-18.619,18.727-18.619
		c2.148,0,3.659,0.161,5.617,0.675V60.049z M116.739,86.065c-1.584-0.459-2.972-0.689-4.774-0.689
		c-6.784,0-10.827,4.223-10.827,11.382c0,7.066,3.737,11.048,10.534,11.048c1.9,0,3.268-0.231,5.067-0.75V86.065z"/>
	<path clip-path="url(#SVGID_2_)" fill="#58595B" d="M140.608,79.253v20.743c0,5.425,1.798,7.236,7.303,7.236
		c1.969,0,3.626-0.178,5.7-0.501V79.253h8.603v33.751c-6.364,1.229-10.409,1.654-15.021,1.654c-5.57,0-9.409-1.089-11.851-3.254
		c-2.466-2.326-3.312-5.197-3.312-11.059V79.253H140.608"/>
	<path clip-path="url(#SVGID_2_)" fill="#58595B" d="M168.956,60.049h5.918c1.56,0,2.67,1.225,2.67,2.625v51.56h-8.588V60.049z"/>
	<path clip-path="url(#SVGID_2_)" fill="#58595B" d="M541.341,60.049h5.918c1.553,0,2.662,1.225,2.662,2.625v51.56h-8.58V60.049z"/>
	<path clip-path="url(#SVGID_2_)" fill="#58595B" d="M199.115,60.049h6.452c1.57,0,2.641,1.225,2.641,2.625v43.378h21.203v8.182
		h-30.295V60.049z"/>
	<path clip-path="url(#SVGID_2_)" fill="#58595B" d="M297.948,66.783h8.667v6.41h-8.667V66.783z M297.998,79.253
		c3.294,0,7.43-0.014,8.592-0.014v34.994h-8.592V79.253z"/>
	<path clip-path="url(#SVGID_2_)" fill="#58595B" d="M363.025,60.003c1.485,0,2.61,1.241,2.61,2.64v35.842
		c0,7.769-0.922,21.193-14.162,27.111c-1.411-2.464-3.37-5.9-4.457-7.845c3.531-1.919,5.761-3.869,7.189-6.504
		c1.809-3.391,2.301-7.362,2.301-17.769V60.003H363.025z"/>
	<path clip-path="url(#SVGID_2_)" fill="#58595B" d="M410.657,79.253c6.343,0,17.252-2.42,24.92,0.814
		c1.449-0.452,6.447-1.713,11.914-1.713c12.66,0,14.192,6.629,14.192,13.05v22.829h-8.579V91.997c0-6.168-4.884-7.988-12.361-6.289
		c0,1.916-0.051,28.526-0.051,28.526h-8.574V92.056c0-4.858-2.896-8.371-12.856-6.291v28.469h-8.604V79.253z"/>
	<path clip-path="url(#SVGID_2_)" fill="#58595B" d="M32.168,65.448c-0.62-1.49-1.466-2.774-4.074-2.774h-7.132
		C12.554,81.908,6.921,95.627-0.001,114.233H9.67c4.388-12.532,10.553-28.653,16.087-42.599c2.165,6.037,5.217,15.185,6.299,18.966
		h-8.069l-2.636,7.316h13.171c1.364,4.048,3.918,11.719,5.403,16.316h10.277C43.467,95.029,36.57,76.162,32.168,65.448"/>
	<path clip-path="url(#SVGID_2_)" fill="#58595B" d="M475.005,98.575c1.358,12.801,17.508,9.946,22.403,5.467v7.16
		c-4.26,2.486-7.887,3.488-12.805,3.488c-11.25,0-17.897-6.644-17.897-17.886c0-11.084,6.772-18.398,17.094-18.398
		c15.541,0,15.392,15.1,15.416,20.169H475.005 M490.901,92.661c-0.358-4.887-2.81-7.601-7.476-7.601
		c-4.963,0-7.754,3.236-8.42,7.601H490.901z"/>
	<path clip-path="url(#SVGID_2_)" fill="#58595B" d="M511.927,98.575c1.354,12.801,17.502,9.946,22.4,5.467v7.16
		c-4.263,2.486-7.893,3.488-12.811,3.488c-11.243,0-17.889-6.644-17.889-17.886c0-11.084,6.772-18.398,17.082-18.398
		c15.547,0,15.414,15.1,15.435,20.169H511.927 M527.813,92.661c-0.354-4.887-2.808-7.601-7.466-7.601
		c-4.969,0-7.768,3.236-8.42,7.601H527.813z"/>
	<path clip-path="url(#SVGID_2_)" fill="#58595B" d="M265.463,79.24v33.875c-7.535,1.574-32.934,6.431-32.934-16.653
		c0-11.369,7.31-18.107,18.725-18.107C257.427,78.355,261.086,79.24,265.463,79.24 M256.888,85.739
		c-1.951-0.377-15.603-3.191-15.603,10.724c0,13.748,13.883,11.143,15.603,10.487V85.739z"/>
	<path clip-path="url(#SVGID_2_)" fill="#58595B" d="M404.12,79.27v33.876c-7.541,1.588-32.935,6.441-32.935-16.649
		c0-11.372,7.312-18.105,18.72-18.105C396.079,78.391,399.739,79.27,404.12,79.27 M395.532,85.764
		c-1.944-0.373-15.595-3.173-15.595,10.732c0,13.754,13.882,11.143,15.595,10.476V85.764z"/>
	<path clip-path="url(#SVGID_2_)" fill="#58595B" d="M311.773,79.24l5.559,0.014c0-8.147,1.296-12.485,4.771-15.655
		c2.739-2.463,6.552-3.863,10.881-3.863c1.306,0,2.112,0.108,3.628,0.378v6.86c-1.162-0.205-1.809-0.278-2.686-0.278
		c-2.721,0-4.9,0.957-6.204,2.651c-1.374,1.742-1.802,4.161-1.802,9.907h8.653v6.401h-8.646v28.579h-8.597V85.655h-5.559V79.24z"/>
	<path clip-path="url(#SVGID_2_)" fill="#2B7F95" d="M613.279,100.328c0.36,0.259,0.713,0.854,0.491,1.561
		c-0.223,0.698-0.843,0.902-1.285,0.901l-8.399,0.001c-1.006,0.021-1.686-0.143-2.198-0.515c-0.545-0.396-0.901-1.001-1.227-2.09
		c0,0-2.373-7.293-2.531-7.805c-0.185-0.58,0.038-1.186,0.443-1.496c0.481-0.374,1.153-0.41,1.637-0.062
		C600.661,91.149,613.279,100.328,613.279,100.328"/>
	<path clip-path="url(#SVGID_2_)" fill="#2B7F95" d="M606.683,72.94c-0.363,0.122-0.543,0.371-0.537,0.686
		c0.011,0.314,0.151,0.503,0.3,0.611c0.153,0.106,4.085,2.979,4.51,3.273c0.418,0.297,0.854,0.289,1.16,0.188
		c0.31-0.099,9.873-3.212,9.873-3.212L622,92.501c0,0-19.104-13.891-20.539-14.924c-1.442-1.032-3.173-1.875-5.836-1.022
		c-2.826,0.907-10.142,3.274-11.323,3.665c-1.179,0.388-1.71,1.486-1.344,2.611c0.3,0.931,7.614,23.39,8.235,25.337
		c1.395,4.34,3.779,6.069,8.295,6.067c1.14-0.002,27.96-0.014,27.96-0.014c0.405,0,0.735-0.317,0.789-0.693v-4.783
		c-0.004-0.431-0.372-0.761-0.789-0.761l-26.017,0.018c-3.345-0.032-3.971-0.849-4.72-3.121c-0.487-1.555-6.434-19.854-6.455-19.913
		c-0.02-0.059,0-0.16,0.096-0.198c0.094-0.037,3.526-1.15,5.342-1.742c1.819-0.591,2.899,0.213,4.004,1.019
		c1.114,0.808,25.08,18.214,26,18.873c0.915,0.661,2.539,0.161,2.535-1.365c-0.002-1.58-0.013-35.612-0.013-35.612
		S607.068,72.813,606.683,72.94"/>
</g>
<g>
	<defs>
		<rect id="SVGID_3_" width="690.439" height="125.596"/>
	</defs>
	<clipPath id="SVGID_4_">
		<use xlink:href="#SVGID_3_"  overflow="visible"/>
	</clipPath>
	<path clip-path="url(#SVGID_4_)" fill="#2B7F95" d="M622.692,21.344c-0.446,0-1.08-0.267-1.315-0.971
		c-0.229-0.696,0.15-1.227,0.51-1.485l6.793-4.941c0.803-0.603,1.451-0.872,2.085-0.872c0.67-0.001,1.314,0.278,2.221,0.968
		c0,0,6.207,4.507,6.633,4.828c0.49,0.36,0.666,0.98,0.522,1.469c-0.171,0.584-0.691,1.011-1.292,1.014
		C638.294,21.354,622.692,21.344,622.692,21.344"/>
	<path clip-path="url(#SVGID_4_)" fill="#2B7F95" d="M644.128,39.629c0.223-0.316,0.221-0.624,0.029-0.873
		c-0.195-0.247-0.423-0.318-0.602-0.318c-0.187,0-5.062-0.009-5.574,0c-0.512,0.009-0.86,0.269-1.049,0.531
		c-0.188,0.262-6.096,8.404-6.096,8.404l-10.602-14.571c0,0,23.62,0.011,25.392,0c1.775-0.011,3.669-0.345,5.319-2.598
		c1.757-2.398,6.28-8.614,7.009-9.621c0.724-1.01,0.509-2.211-0.447-2.908c-0.794-0.573-19.907-14.447-21.557-15.655
		c-3.682-2.69-6.625-2.688-10.276-0.032c-0.921,0.67-22.615,16.443-22.615,16.443c-0.328,0.241-0.409,0.693-0.228,1.028l2.81,3.868
		c0.255,0.348,0.743,0.397,1.087,0.151l21.038-15.303c2.724-1.943,3.709-1.65,5.651-0.252c1.311,0.971,16.873,12.282,16.924,12.316
		c0.054,0.036,0.094,0.13,0.04,0.215c-0.059,0.086-2.175,3.001-3.297,4.548c-1.124,1.55-2.469,1.532-3.841,1.533
		c-1.373,0-30.998,0.003-32.125,0.011c-1.131,0.007-2.146,1.363-1.247,2.6c0.928,1.275,20.942,28.799,20.942,28.799
		S643.89,39.957,644.128,39.629"/>
</g>
<g>
	<defs>
		<rect id="SVGID_5_" width="690.439" height="125.596"/>
	</defs>
	<clipPath id="SVGID_6_">
		<use xlink:href="#SVGID_5_"  overflow="visible"/>
	</clipPath>
	<path clip-path="url(#SVGID_6_)" fill="#2B7F95" d="M589.29,57.419c-0.139,0.426-0.587,0.945-1.328,0.95
		c-0.733,0.005-1.122-0.523-1.258-0.943l-2.6-7.988c-0.325-0.951-0.383-1.646-0.189-2.252c0.211-0.636,0.677-1.162,1.61-1.812
		c0,0,6.21-4.509,6.646-4.819c0.492-0.354,1.134-0.329,1.56-0.042c0.498,0.345,0.743,0.973,0.562,1.542
		C594.122,42.583,589.29,57.419,589.29,57.419"/>
	<path clip-path="url(#SVGID_6_)" fill="#2B7F95" d="M613.301,42.685c-0.228-0.312-0.524-0.405-0.82-0.3
		c-0.293,0.106-0.429,0.299-0.487,0.474c-0.059,0.175-1.57,4.808-1.721,5.297c-0.155,0.492-0.011,0.903,0.181,1.165
		c0.189,0.261,6.105,8.394,6.105,8.394l-17.128,5.578c0,0,7.306-22.458,7.844-24.146c0.537-1.687,0.801-3.596-0.831-5.862
		c-1.734-2.41-6.248-8.636-6.985-9.638c-0.73-1-1.939-1.17-2.896-0.474c-0.794,0.575-19.895,14.472-21.554,15.664
		c-3.696,2.667-4.605,5.47-3.204,9.766c0.352,1.083,8.649,26.586,8.649,26.586c0.127,0.385,0.532,0.602,0.905,0.535l4.55-1.475
		c0.41-0.137,0.604-0.588,0.478-0.99l-8.052-24.735c-1.006-3.194-0.424-4.039,1.51-5.454c1.326-0.946,16.893-12.255,16.942-12.291
		c0.048-0.039,0.149-0.049,0.214,0.029c0.064,0.08,2.18,2.997,3.305,4.542c1.129,1.547,0.697,2.819,0.272,4.124
		c-0.426,1.307-9.572,29.483-9.913,30.56c-0.344,1.073,0.63,2.462,2.081,1.989C594.249,71.532,626.612,61,626.612,61
		S613.542,43.01,613.301,42.685"/>
	<path clip-path="url(#SVGID_6_)" fill="#2B7F95" d="M661.501,90.776c0.362-0.265,1.03-0.414,1.635,0.017
		c0.595,0.424,0.6,1.078,0.463,1.497l-2.594,7.993c-0.292,0.959-0.655,1.559-1.169,1.933c-0.547,0.395-1.231,0.543-2.369,0.518
		c0,0-7.672,0-8.208-0.003c-0.609-0.002-1.113-0.404-1.282-0.888c-0.208-0.571-0.035-1.224,0.452-1.574
		C648.87,99.941,661.501,90.776,661.501,90.776"/>
	<path clip-path="url(#SVGID_6_)" fill="#2B7F95" d="M633.417,88.583c0.002,0.39,0.185,0.636,0.486,0.725
		c0.298,0.087,0.524,0.01,0.67-0.097c0.155-0.108,4.101-2.966,4.511-3.273c0.409-0.31,0.536-0.727,0.536-1.052
		c0-0.321-0.006-10.376-0.006-10.376l17.138,5.559c0,0-19.113,13.869-20.54,14.92c-1.427,1.049-2.763,2.435-2.774,5.228
		c-0.013,2.973-0.021,10.661-0.017,11.902c0.012,1.242,0.888,2.09,2.07,2.09c0.977,0,24.597-0.012,26.642-0.004
		c4.56,0.015,6.938-1.717,8.338-6.015c0.346-1.084,8.624-26.594,8.624-26.594c0.122-0.385-0.072-0.8-0.415-0.965l-4.55-1.476
		c-0.412-0.134-0.84,0.115-0.965,0.517l-8.027,24.741c-1.063,3.174-2.034,3.516-4.424,3.526c-1.63-0.013-20.869-0.017-20.934-0.017
		c-0.061,0.004-0.152-0.049-0.16-0.148c-0.006-0.105-0.004-3.709-0.006-5.616c0-1.916,1.098-2.693,2.209-3.5
		c1.109-0.807,25.074-18.222,25.986-18.889c0.907-0.67,0.933-2.367-0.52-2.836c-1.507-0.488-33.875-10.99-33.875-10.99
		S633.411,88.181,633.417,88.583"/>
</g>
<g>
	<defs>
		<rect id="SVGID_7_" width="690.439" height="125.596"/>
	</defs>
	<clipPath id="SVGID_8_">
		<use xlink:href="#SVGID_7_"  overflow="visible"/>
	</clipPath>
	<path clip-path="url(#SVGID_8_)" fill="#2B7F95" d="M667.321,41.965c-0.137-0.427-0.074-1.11,0.52-1.549
		c0.588-0.438,1.214-0.24,1.567,0.021l6.798,4.936c0.821,0.578,1.281,1.107,1.478,1.712c0.204,0.636,0.137,1.334-0.239,2.412
		c0,0-2.368,7.294-2.544,7.801c-0.187,0.577-0.725,0.938-1.231,0.95c-0.607,0.017-1.178-0.348-1.363-0.917
		C672.133,56.808,667.321,41.965,667.321,41.965"/>
	<path clip-path="url(#SVGID_8_)" fill="#2B7F95" d="M656.555,67.995c0.37,0.119,0.658,0.023,0.84-0.236
		c0.178-0.26,0.174-0.497,0.117-0.672c-0.059-0.174-1.559-4.812-1.723-5.3c-0.165-0.485-0.523-0.734-0.829-0.834
		c-0.31-0.098-9.876-3.203-9.876-3.203l10.581-14.578c0,0,7.286,22.463,7.843,24.146c0.56,1.683,1.463,3.381,4.119,4.254
		c2.819,0.929,10.128,3.313,11.313,3.69c1.187,0.379,2.262-0.195,2.627-1.319c0.299-0.931,7.588-23.399,8.234-25.34
		c1.421-4.33,0.507-7.13-3.147-9.787c-0.923-0.666-22.628-16.424-22.628-16.424c-0.33-0.235-0.785-0.174-1.048,0.1l-2.807,3.869
		c-0.257,0.348-0.151,0.833,0.188,1.078l21.053,15.281c2.69,1.995,2.715,3.019,1.985,5.3c-0.515,1.545-6.463,19.844-6.485,19.9
		c-0.014,0.061-0.094,0.129-0.188,0.103c-0.1-0.025-3.526-1.14-5.347-1.729c-1.818-0.589-2.217-1.873-2.643-3.178
		c-0.423-1.306-9.584-29.48-9.936-30.549c-0.357-1.073-1.964-1.624-2.855-0.386C655.016,33.458,635.022,61,635.022,61
		S656.167,67.874,656.555,67.995"/>
</g>
</svg>
