<?xml version="1.0" encoding="utf-8"?>
<!-- Generator: Adobe Illustrator 16.0.0, SVG Export Plug-In . SVG Version: 6.00 Build 0)  -->
<!DOCTYPE svg PUBLIC "-//W3C//DTD SVG 1.1//EN" "http://www.w3.org/Graphics/SVG/1.1/DTD/svg11.dtd">
<svg version="1.1" id="Layer_1" xmlns="http://www.w3.org/2000/svg" xmlns:xlink="http://www.w3.org/1999/xlink" x="0px" y="0px"
	 width="22.813px" height="23px" viewBox="44.125 7.938 22.813 23" enable-background="new 44.125 7.938 22.813 23"
	 xml:space="preserve">
<g>
	<path fill="none" stroke="#55869E" stroke-width="0.5" stroke-miterlimit="10" d="M55.337,19.359c-1.407,0-2.549-1.141-2.549-2.549
		s1.143-2.549,2.549-2.549c0.882,0,1.656,0.446,2.114,1.123"/>
	<path fill="none" stroke="#55869E" stroke-width="0.5" stroke-miterlimit="10" d="M55.337,19.359c1.408,0,2.55,1.142,2.55,2.55
		c0,1.408-1.142,2.549-2.55,2.549c-1.11,0-2.055-0.711-2.404-1.702"/>
	<g>
		<path fill="none" stroke="#55869E" stroke-width="0.5" stroke-miterlimit="10" d="M62.471,12.697l1.008-0.995
			c-1.019-1.036-2.236-1.874-3.595-2.449l-0.553,1.305C60.518,11.06,61.581,11.792,62.471,12.697z"/>
		<path fill="none" stroke="#55869E" stroke-width="0.5" stroke-miterlimit="10" d="M59.331,10.558l0.553-1.305
			c-1.319-0.559-2.77-0.869-4.291-0.874l-0.01,1.416C56.912,9.799,58.179,10.07,59.331,10.558z"/>
		<path fill="none" stroke="#55869E" stroke-width="0.5" stroke-miterlimit="10" d="M55.555,9.795c0.011,0,0.02,0,0.028,0
			l0.01-1.416c-0.013,0-0.025-0.001-0.038-0.001c-1.496,0-2.922,0.298-4.224,0.833l0.531,1.313
			C53.001,10.055,54.247,9.795,55.555,9.795z"/>
		<path fill="none" stroke="#55869E" stroke-width="0.5" stroke-miterlimit="10" d="M64.454,23.343l1.304,0.553
			c0.566-1.311,0.888-2.751,0.906-4.265l-1.416-0.01C65.23,20.943,64.949,22.201,64.454,23.343z"/>
		<path fill="none" stroke="#55869E" stroke-width="0.5" stroke-miterlimit="10" d="M64.56,15.897l1.313-0.531
			c-0.552-1.379-1.371-2.622-2.395-3.664l-1.008,0.995C63.364,13.607,64.078,14.692,64.56,15.897z"/>
		<path fill="none" stroke="#55869E" stroke-width="0.5" stroke-miterlimit="10" d="M51.862,10.525l-0.531-1.313
			c-1.369,0.563-2.602,1.39-3.632,2.42l0.995,1.008C49.592,11.74,50.668,11.017,51.862,10.525z"/>
		<path fill="none" stroke="#55869E" stroke-width="0.5" stroke-miterlimit="10" d="M65.251,19.492c0,0.044-0.003,0.087-0.003,0.131
			l1.416,0.009c0-0.047,0.004-0.093,0.004-0.14c0-1.458-0.284-2.85-0.795-4.126l-1.313,0.531
			C65.005,17.009,65.251,18.221,65.251,19.492z"/>
		<path fill="none" stroke="#55869E" stroke-width="0.5" stroke-miterlimit="10" d="M48.693,12.64l-0.995-1.008
			c-1.021,1.021-1.843,2.238-2.406,3.591l1.304,0.553C47.088,14.595,47.804,13.531,48.693,12.64z"/>
		<path fill="none" stroke="#55869E" stroke-width="0.5" stroke-miterlimit="10" d="M59.137,28.502l0.531,1.313
			c1.368-0.545,2.601-1.354,3.638-2.363l-0.994-1.008C61.406,27.323,60.33,28.026,59.137,28.502z"/>
		<path fill="none" stroke="#55869E" stroke-width="0.5" stroke-miterlimit="10" d="M51.762,28.417l-0.553,1.305
			c1.303,0.553,2.732,0.864,4.233,0.879l0.01-1.416C54.144,29.171,52.897,28.9,51.762,28.417z"/>
		<path fill="none" stroke="#55869E" stroke-width="0.5" stroke-miterlimit="10" d="M65.759,23.897l-1.305-0.553
			c-0.508,1.171-1.24,2.222-2.143,3.099l0.995,1.008C64.34,26.445,65.178,25.24,65.759,23.897z"/>
		<path fill="none" stroke="#55869E" stroke-width="0.5" stroke-miterlimit="10" d="M48.667,26.315l-1.008,0.994
			c1.008,1.019,2.212,1.844,3.55,2.413l0.553-1.305C50.596,27.921,49.546,27.202,48.667,26.315z"/>
		<path fill="none" stroke="#55869E" stroke-width="0.5" stroke-miterlimit="10" d="M55.555,29.188
			c-0.034,0-0.068-0.002-0.103-0.002l-0.01,1.416c0.038,0,0.075,0.003,0.112,0.003c1.454,0,2.841-0.282,4.114-0.789l-0.531-1.314
			C58.029,28.943,56.82,29.188,55.555,29.188z"/>
		<path fill="none" stroke="#55869E" stroke-width="0.5" stroke-miterlimit="10" d="M45.858,19.492L45.858,19.492l-1.416-0.009
			c0,0.002,0,0.006,0,0.009c0,1.491,0.296,2.912,0.829,4.211l1.313-0.531C46.117,22.037,45.858,20.794,45.858,19.492z"/>
		<path fill="none" stroke="#55869E" stroke-width="0.5" stroke-miterlimit="10" d="M46.597,15.777l-1.304-0.553
			c-0.546,1.312-0.849,2.75-0.851,4.259l1.416,0.009C45.858,18.175,46.122,16.921,46.597,15.777z"/>
		<path fill="none" stroke="#55869E" stroke-width="0.5" stroke-miterlimit="10" d="M46.583,23.171l-1.313,0.532
			c0.557,1.357,1.373,2.58,2.388,3.606l1.008-0.994C47.781,25.421,47.069,24.355,46.583,23.171z"/>
		<path fill="none" stroke="#55869E" stroke-width="0.5" stroke-miterlimit="10" d="M55.518,19.557L55.518,19.557L55.518,19.557z"/>
		<polygon fill="none" stroke="#55869E" stroke-width="0.5" stroke-miterlimit="10" points="55.518,19.557 55.518,19.557 
			55.518,19.557 		"/>
		<polygon fill="none" stroke="#55869E" stroke-width="0.5" stroke-miterlimit="10" points="55.518,19.557 55.518,19.557 
			55.518,19.557 		"/>
		<polygon fill="none" stroke="#55869E" stroke-width="0.5" stroke-miterlimit="10" points="55.518,19.557 55.518,19.557 
			55.518,19.557 		"/>
		<polygon fill="none" stroke="#55869E" stroke-width="0.5" stroke-miterlimit="10" points="55.518,19.557 55.518,19.557 
			55.518,19.557 55.518,19.557 		"/>
		<polygon fill="none" stroke="#55869E" stroke-width="0.5" stroke-miterlimit="10" points="55.518,19.557 55.518,19.557 
			55.518,19.557 55.518,19.557 		"/>
		<path fill="none" stroke="#55869E" stroke-width="0.5" stroke-miterlimit="10" d="M55.518,19.557L55.518,19.557L55.518,19.557z"/>
		<polygon fill="none" stroke="#55869E" stroke-width="0.5" stroke-miterlimit="10" points="55.518,19.557 55.518,19.557 
			55.518,19.557 		"/>
		<polygon fill="none" stroke="#55869E" stroke-width="0.5" stroke-miterlimit="10" points="55.518,19.557 55.518,19.557 
			55.518,19.557 		"/>
		<path fill="none" stroke="#55869E" stroke-width="0.5" stroke-miterlimit="10" d="M55.518,19.557L55.518,19.557L55.518,19.557z"/>
		<path fill="none" stroke="#55869E" stroke-width="0.5" stroke-miterlimit="10" d="M55.518,19.557L55.518,19.557L55.518,19.557z"/>
		<path fill="none" stroke="#55869E" stroke-width="0.5" stroke-miterlimit="10" d="M55.518,19.557L55.518,19.557L55.518,19.557z"/>
		<path fill="none" stroke="#55869E" stroke-width="0.5" stroke-miterlimit="10" d="M55.518,19.557L55.518,19.557L55.518,19.557z"/>
		<path fill="none" stroke="#55869E" stroke-width="0.5" stroke-miterlimit="10" d="M55.518,19.557L55.518,19.557L55.518,19.557z"/>
		<path fill="none" stroke="#55869E" stroke-width="0.5" stroke-miterlimit="10" d="M55.518,19.557L55.518,19.557L55.518,19.557z"/>
		<polygon fill="none" stroke="#55869E" stroke-width="0.5" stroke-miterlimit="10" points="55.518,19.557 55.518,19.557 
			55.518,19.557 		"/>
		<polygon fill="none" stroke="#55869E" stroke-width="0.5" stroke-miterlimit="10" points="55.518,19.557 55.518,19.557 
			55.518,19.557 55.518,19.557 		"/>
		<path fill="none" stroke="#55869E" stroke-width="0.5" stroke-miterlimit="10" d="M55.518,19.557L55.518,19.557L55.518,19.557z"/>
		<polygon fill="none" stroke="#55869E" stroke-width="0.5" stroke-miterlimit="10" points="55.518,19.557 55.518,19.557 
			55.518,19.557 		"/>
		<polygon fill="none" stroke="#55869E" stroke-width="0.5" stroke-miterlimit="10" points="55.518,19.557 55.518,19.557 
			55.518,19.557 		"/>
	</g>
	<line fill="none" stroke="#55869E" stroke-width="0.5" stroke-miterlimit="10" x1="55.597" y1="11.522" x2="55.597" y2="27.169"/>
</g>
</svg>
