<?xml version="1.0" encoding="utf-8"?>
<!-- Generator: Adobe Illustrator 16.0.0, SVG Export Plug-In . SVG Version: 6.00 Build 0)  -->
<!DOCTYPE svg PUBLIC "-//W3C//DTD SVG 1.1//EN" "http://www.w3.org/Graphics/SVG/1.1/DTD/svg11.dtd">
<svg version="1.1" id="Layer_1" xmlns="http://www.w3.org/2000/svg" xmlns:xlink="http://www.w3.org/1999/xlink" x="0px" y="0px"
	 width="78.16px" height="100.013px" viewBox="0 0 78.16 100.013" enable-background="new 0 0 78.16 100.013" xml:space="preserve">
<g>
	<defs>
		<rect id="SVGID_1_" width="78.16" height="100.013"/>
	</defs>
	<clipPath id="SVGID_2_">
		<use xlink:href="#SVGID_1_"  overflow="visible"/>
	</clipPath>
	<path clip-path="url(#SVGID_2_)" d="M62.557,40.016H17.701V24.265c0-7.271,5.915-13.186,13.186-13.186h16.387
		c7.271,0,13.186,5.915,13.186,13.186c0,3.059,2.48,5.539,5.539,5.539c3.06,0,5.54-2.48,5.54-5.539C71.539,10.885,60.653,0,47.274,0
		H30.887C17.507,0,6.622,10.885,6.622,24.265v18.609C2.621,45.699,0,50.35,0,55.62v28.79c0,8.617,6.985,15.604,15.602,15.604h46.955
		c8.616,0,15.604-6.986,15.604-15.604V55.62C78.16,47.002,71.173,40.016,62.557,40.016 M39.081,80.047
		c-2.164,0-6.268-2.225-6.268-4.39l2.154-8.472c-0.42-0.712-0.666-1.539-0.666-2.425c0-2.64,2.139-4.779,4.779-4.779
		c2.64,0,4.78,2.141,4.78,4.779c0,0.886-0.245,1.712-0.665,2.423l2.151,8.474C45.347,77.824,41.244,80.047,39.081,80.047"/>
</g>
</svg>
