<?xml version="1.0" encoding="utf-8"?>
<!-- Generator: Adobe Illustrator 16.0.0, SVG Export Plug-In . SVG Version: 6.00 Build 0)  -->
<!DOCTYPE svg PUBLIC "-//W3C//DTD SVG 1.1//EN" "http://www.w3.org/Graphics/SVG/1.1/DTD/svg11.dtd">
<svg version="1.1" id="Layer_1" xmlns="http://www.w3.org/2000/svg" xmlns:xlink="http://www.w3.org/1999/xlink" x="0px" y="0px"
	 width="75px" height="69px" viewBox="13.833 -3.25 75 69" enable-background="new 13.833 -3.25 75 69" xml:space="preserve">
<g>
	<polygon fill="none" stroke="#000000" stroke-width="0.5" stroke-miterlimit="10" points="54.375,26.875 48.216,26.875 
		48.216,33.774 41.317,33.774 41.317,39.933 48.216,39.933 48.216,46.832 54.375,46.832 54.375,39.933 61.275,39.933 61.275,33.774 
		54.375,33.774 	"/>
	<path fill="none" stroke="#000000" stroke-width="0.5" stroke-miterlimit="10" d="M51.297,3.327c-5.025,0-9.505,2.91-11.563,7.46
		h23.125C60.8,6.236,56.32,3.327,51.297,3.327z"/>
	<path fill="none" stroke="#000000" stroke-width="0.5" stroke-miterlimit="10" d="M80.552,11.528H68.693L68.6,11.298
		C65.702,4.255,58.91-0.295,51.297-0.295S36.892,4.256,33.993,11.298l-0.094,0.229H22.04c-3.065,0-5.559,1.776-5.559,3.959v42.731
		c0,2.184,2.493,3.961,5.558,3.961h58.513c3.065,0,5.56-1.777,5.56-3.961V15.487C86.111,13.304,83.617,11.528,80.552,11.528z
		 M62.016,40.673h-6.898v6.899h-7.642v-6.899h-6.899v-7.64h6.899v-6.898h7.641v6.898h6.898L62.016,40.673L62.016,40.673z
		 M38.625,11.528l0.205-0.509c2.061-5.123,6.955-8.433,12.468-8.433c5.512,0,10.406,3.31,12.467,8.433l0.205,0.509H38.625z"/>
	<path fill="none" stroke="#000000" stroke-width="0.5" stroke-miterlimit="10" d="M80.552,10.787H69.189
		C66.125,3.596,59.128-1.036,51.297-1.036c-7.832,0-14.827,4.632-17.893,11.823H22.039c-3.473,0-6.298,2.108-6.298,4.7v42.731
		c0,2.592,2.825,4.701,6.298,4.701h58.513c3.474,0,6.3-2.109,6.3-4.701V15.487C86.852,12.896,84.025,10.787,80.552,10.787z
		 M86.111,58.219c0,2.184-2.494,3.961-5.56,3.961H22.039c-3.064-0.002-5.558-1.777-5.558-3.961V15.487
		c0-2.184,2.493-3.96,5.558-3.96h11.859l0.094-0.229c2.899-7.042,9.691-11.593,17.304-11.593S65.702,4.256,68.6,11.298l0.094,0.229
		h11.858c3.065,0,5.56,1.776,5.56,3.96V58.219L86.111,58.219z"/>
	<path fill="none" stroke="#000000" stroke-width="0.5" stroke-miterlimit="10" d="M51.297,2.586c-5.513,0-10.407,3.31-12.468,8.433
		l-0.205,0.509h25.344l-0.205-0.509C61.703,5.896,56.809,2.586,51.297,2.586z M39.734,10.787c2.058-4.551,6.538-7.46,11.563-7.46
		c5.023,0,9.503,2.91,11.563,7.46L39.734,10.787L39.734,10.787z"/>
	<path fill="none" stroke="#000000" stroke-width="0.5" stroke-miterlimit="10" d="M55.116,26.134h-7.641v6.899h-6.899v7.64h6.899v6.898h7.641
		v-6.898h6.898v-7.639h-6.898V26.134z M61.275,33.774v6.159h-6.898v6.898h-6.16v-6.898h-6.899v-6.159h6.899v-6.898h6.16v6.898
		H61.275z"/>
</g>
</svg>
