<?xml version="1.0" encoding="utf-8"?>
<!-- Generator: Adobe Illustrator 16.0.0, SVG Export Plug-In . SVG Version: 6.00 Build 0)  -->
<!DOCTYPE svg PUBLIC "-//W3C//DTD SVG 1.1//EN" "http://www.w3.org/Graphics/SVG/1.1/DTD/svg11.dtd">
<svg version="1.1" id="grill" xmlns="http://www.w3.org/2000/svg" xmlns:xlink="http://www.w3.org/1999/xlink" x="0px" y="0px"
	 width="65px" height="65.5px" viewBox="19.5 0 65 65.5" enable-background="new 19.5 0 65 65.5" xml:space="preserve">
<path fill="none" d="M61.819,23.037l-2.527,2.527c-0.243,0.243-0.243,0.637,0,0.88c0.121,0.122,0.28,0.182,0.439,0.182
	c0.16,0,0.319-0.061,0.44-0.182l2.527-2.527c0.243-0.243,0.243-0.637,0-0.88S62.062,22.794,61.819,23.037z"/>
<path fill="none" d="M75.901,10.083c-1.12-1.121-2.881-1.612-4.339-0.979c-2.35,1.019-4.531,2.519-6.498,4.155l-0.646,0.537
	c-2.354,1.958-4.647,4.051-6.815,6.218c-0.48,0.48-0.955,0.969-1.434,1.454l-1.889-0.562l0.781-0.953
	c0.957-0.993,0.869-1.99-0.172-3.031L53.781,16c-1.219-0.925-1.984-0.675-3.109,0.063l-3.226,2.817l-11.934-3.542
	c-0.361-0.106-0.749-0.007-1.013,0.258l-3.03,3.03c-0.231,0.231-0.338,0.558-0.288,0.88c0.051,0.322,0.253,0.602,0.543,0.75
	l17.226,8.833c-3.622,3.976-7.135,8.063-10.505,12.233l-8.079-2.904c-0.373-0.133-0.788-0.041-1.067,0.239l-2.96,2.96
	c-0.224,0.223-0.331,0.538-0.292,0.851c0.04,0.314,0.223,0.591,0.495,0.752l10.21,6.013l6.014,10.21
	c0.161,0.272,0.438,0.455,0.751,0.495c0.043,0.005,0.086,0.008,0.129,0.008c0.269,0,0.53-0.106,0.722-0.299l2.96-2.961
	c0.281-0.28,0.374-0.699,0.237-1.072l-2.945-8.032c4.187-3.382,8.29-6.907,12.28-10.542l8.83,17.219
	c0.148,0.291,0.428,0.492,0.75,0.543c0.053,0.008,0.105,0.013,0.158,0.013c0.27,0,0.529-0.106,0.723-0.3l3.03-3.029
	c0.265-0.266,0.364-0.654,0.258-1.013L67.107,38.54l2.977-2.976c1.041-1.041,1.041-2.735,0-3.776l-0.752-0.75
	c-1.008-1.01-1.52-1.475-2.613-0.725l-1.684,1.245l-0.516-1.736c0.486-0.479,0.975-0.955,1.455-1.436
	c2.168-2.166,4.26-4.459,6.221-6.816l0.536-0.647c1.633-1.97,2.978-4.159,3.997-6.507C77.371,12.929,77.047,11.229,75.901,10.083z
	 M50.813,17.031c0.237-0.235,0.906-0.885,1.422-0.813l2.25,1.461c0.672,0.57,0.406,1.158,0.162,1.403l-1.167,1.542L48.5,19.25
	L50.813,17.031z M32.125,19.406l3.156-3.25l20.313,6.125c-1.405,1.451-4.561,4.45-5.938,5.938L32.125,19.406z M30.063,39.156
	L38,42.094l1.5,0.625l1.813,0.625L36.625,48l-9.719-5.594L30.063,39.156z M43.625,58.875l-5.969-10l4.802-4.458l0.604,1.688
	c0.001,0.001,0.354,1.187,0.354,1.187l3.083,8.667L43.625,58.875z M67.125,30.781c0.781-0.484,1.216,0.171,1.453,0.406l1.109,1.063
	c0.906,0.859,0.229,2.552-0.016,2.797l-2.813,2.641l-0.828-2.774l-0.766-2.664L67.125,30.781z M64.375,32.958l0.292,0.875
	l1.708,5.708l3.375,11.052l-3.156,3.125l-8.885-17.427c1.486-1.376,4.465-4.303,5.916-5.708L64.375,32.958z M65.417,27.583
	c-6.522,6.522-13.307,12.865-21.208,18.708L43.25,43.75l4.167-4.458c0.399-0.399,0.871-0.794,0.471-1.192
	c-0.398-0.399-1.046-0.399-1.444,0l-4.487,4.487l-2.52-0.919c5.826-7.169,12.248-14.186,18.75-20.688
	c2.123-2.123,4.255-4.248,6.563-6.167l0.792-0.667c0.849-0.677,3.226,1.199,4.165,2.139c1.019,1.019,2.445,2.414,2.309,3.715
	l-0.674,0.913C71.342,20.913,67.539,25.461,65.417,27.583z M76.339,12.583c0.007,0.295-0.036,0.598-0.121,0.901
	c-0.253,0.902-0.728,1.721-1.223,2.51c-0.492,0.785-0.979,1.573-1.479,2.354c-0.121,0.189-0.243,0.378-0.366,0.567
	c-0.05,0.076-0.283,0.332-0.275,0.419c-0.089-0.974-1.673-3.174-2.416-3.917c-0.743-0.744-2.793-1.922-3.771-2.229
	c0.055,0.017,0.469-0.398,0.529-0.447c0.22-0.177,0.445-0.348,0.672-0.516c0.419-0.311,0.844-0.614,1.269-0.916
	c0.854-0.606,1.739-1.173,2.76-1.451c0.553-0.15,1.148-0.165,1.707-0.026c0.804,0.199,1.612,0.641,2.155,1.274
	C76.155,11.544,76.327,12.051,76.339,12.583z"/>
</svg>
